<mxfile host="app.diagrams.net" modified="2024-03-28T06:05:24.717Z" agent="Mozilla/5.0 (Windows NT 10.0; Win64; x64) AppleWebKit/537.36 (KHTML, like Gecko) Chrome/123.0.0.0 Safari/537.36" etag="DlIQ0bhO8IwNeyznOcZS" version="24.2.0" type="github">
  <diagram name="第 1 页" id="R4-ZUkijiIR4iluJVMZt">
    <mxGraphModel dx="1050" dy="569" grid="1" gridSize="10" guides="1" tooltips="1" connect="1" arrows="1" fold="1" page="1" pageScale="1" pageWidth="827" pageHeight="1169" math="0" shadow="0">
      <root>
        <mxCell id="0" />
        <mxCell id="1" parent="0" />
        <mxCell id="CVSLRsANvx-6_cyvt9ej-1" value="&lt;h1 style=&quot;&quot;&gt;&lt;font size=&quot;1&quot; style=&quot;&quot;&gt;&lt;i style=&quot;font-size: 10px;&quot;&gt;subject&lt;/i&gt;&lt;/font&gt;&lt;/h1&gt;&lt;div style=&quot;text-align: left;&quot;&gt;&lt;font size=&quot;1&quot; style=&quot;&quot;&gt;&lt;i style=&quot;font-size: 10px;&quot;&gt;&lt;br&gt;&lt;/i&gt;&lt;/font&gt;&lt;/div&gt;" style="whiteSpace=wrap;html=1;aspect=fixed;verticalAlign=top;align=center;" vertex="1" parent="1">
          <mxGeometry x="51" y="40" width="190" height="190" as="geometry" />
        </mxCell>
      </root>
    </mxGraphModel>
  </diagram>
</mxfile>
